<svg id="logo" xmlns="http://www.w3.org/2000/svg" xmlns:xlink="http://www.w3.org/1999/xlink" width="345" height="120" viewBox="0 0 345 120">
  <defs>
    <clipPath id="clip-path">
      <rect id="Rectangle_2" data-name="Rectangle 2" width="120" height="120" fill="#f2cb0b"/>
    </clipPath>
  </defs>
  <text id="SikaraDEV" transform="translate(121 80)" fill="#fff" font-size="50" font-family="SegoeUI, Segoe UI"><tspan x="0" y="0">Sikara</tspan><tspan y="0" fill="#f2cb0b">DEV</tspan></text>
  <g id="temp_abstract-3736AK3637AK36_temp" clip-path="url(#clip-path)">
    <path id="Tracé_7" data-name="Tracé 7" d="M97.953,45.4a6.4,6.4,0,1,1-1.874-4.528A6.406,6.406,0,0,1,97.953,45.4Z" fill="#f2cb0b"/>
    <path id="Tracé_8" data-name="Tracé 8" d="M120,13.947a5.42,5.42,0,1,1-1.587-3.833A5.418,5.418,0,0,1,120,13.947Z" fill="#f2cb0b"/>
    <path id="Tracé_9" data-name="Tracé 9" d="M56.917,19.546a5.776,5.776,0,1,1-.439-2.212A5.781,5.781,0,0,1,56.917,19.546Z" fill="#f2cb0b"/>
    <path id="Tracé_10" data-name="Tracé 10" d="M27.54,23.191a3.454,3.454,0,1,0-3.452-3.454A3.453,3.453,0,0,0,27.54,23.191Z" fill="#f2cb0b"/>
    <path id="Tracé_11" data-name="Tracé 11" d="M11.852,29.864a3.213,3.213,0,1,1-.941-2.272,3.214,3.214,0,0,1,.941,2.272Z" fill="#f2cb0b"/>
    <path id="Tracé_12" data-name="Tracé 12" d="M112.072,79.117a9.793,9.793,0,0,1-9.8,9.794c-.35,0-.707-.023-1.045-.054h-.04a9.785,9.785,0,0,1-8.68-9.353h0v-.381a9.785,9.785,0,0,1,8.954-9.76,7.544,7.544,0,0,1,.825-.04,9.8,9.8,0,0,1,9.014,5.986h0a9.938,9.938,0,0,1,.768,3.808Z" fill="#f2cb0b"/>
    <path id="Tracé_13" data-name="Tracé 13" d="M87.964,74.131a44.022,44.022,0,0,1-.447,6.307.134.134,0,0,1-.02.057A43.988,43.988,0,0,1,43.98,118.133a43.477,43.477,0,0,1-17.849-3.788.162.162,0,0,0-.057-.017A44.011,44.011,0,0,1,.11,77.251v-.074a.6.6,0,0,1-.017-.187C.037,76.055,0,75.106,0,74.134a44,44,0,0,1,43.98-44A43.488,43.488,0,0,1,61.7,33.866h.053A43.993,43.993,0,0,1,87.964,74.131Z" fill="#f2cb0b"/>
    <path id="Tracé_14" data-name="Tracé 14" d="M99.119,18.35A17.336,17.336,0,0,1,81.758,35.686c-.614,0-1.249-.037-1.846-.094h-.093A17.329,17.329,0,0,1,64.46,19.058v-.02c-.017-.224-.017-.448-.017-.668A17.319,17.319,0,0,1,80.3,1.074h.017A12.5,12.5,0,0,1,81.771,1,17.361,17.361,0,0,1,97.757,11.6l.017.017A17.59,17.59,0,0,1,99.119,18.35Z" fill="#f2cb0b"/>
  </g>
</svg>
